# xmcd
#
# Track frame offsets:
#	150
#	17305
#	35922
#	52082
#	70750
#	89355
#	107092
#	121930
#	142807
#	160020
#	179800
#
# Disc length: 2635 seconds
#
# Revision: 7
# Processed by: cddbd v1.5.2PL0 Copyright (c) Steve Scherf et al.
# Submitted via: EasyCDDAExtractor 15.3.0.1
#
DISCID=910a490b
DTITLE=Sentidos Opuestos - Viento A Favor
DYEAR=1998
DGENRE=Latin
TTITLE0=Tu Y Yo
TTITLE1=Amor De Papel
TTITLE2=En El Silencio
TTITLE3=Loco Amor
TTITLE4=Te Voy A Dejar
TTITLE5=Inexplicablemente
TTITLE6=Fiesta
TTITLE7=Mensaje Para Ti
TTITLE8=Sentidos Opuestos
TTITLE9=Ardiente Tentacion
TTITLE10=Oh Na Na Na
EXTD=
EXTT0=
EXTT1=
EXTT2=
EXTT3=
EXTT4=
EXTT5=
EXTT6=
EXTT7=
EXTT8=
EXTT9=
EXTT10=
PLAYORDER=
